<svg xmlns="http://www.w3.org/2000/svg" width="1632" height="1632" viewBox="0 0 1632 1632" version="1.1">
	<path d="M 607.984 534.250 C 604.611 539.767, 600.202 551.209, 597.450 561.586 C 592.813 579.070, 592.886 608.239, 597.609 626 C 608.456 666.783, 633.955 698.918, 669.664 716.808 C 679.023 721.497, 696.003 726.872, 695.998 725.144 C 695.997 724.790, 694.085 723.281, 691.748 721.792 C 689.412 720.302, 686.375 718.036, 685 716.756 C 683.625 715.475, 681.407 713.670, 680.072 712.745 C 674.390 708.808, 659.508 694.092, 652.562 685.544 C 629.985 657.760, 617.720 630.944, 610.922 594.500 C 609.391 586.293, 608.646 553.773, 609.701 541.250 C 610.176 535.612, 610.431 531, 610.268 531 C 610.104 531, 609.076 532.462, 607.984 534.250 M 1043 608.037 C 1020.572 610.835, 1003.809 614.604, 980 622.200 C 971.206 625.006, 950.179 633.013, 942.706 636.402 C 940.943 637.201, 937.250 638.840, 934.500 640.044 C 928.569 642.639, 899.939 656.891, 898.500 657.964 C 897.950 658.374, 894.449 660.365, 890.719 662.389 C 878.635 668.947, 871.660 673.013, 844.500 689.338 C 822.401 702.621, 804.886 712.951, 798 716.764 C 795.525 718.135, 789.225 721.631, 784 724.535 C 772.459 730.947, 750.548 741.500, 740 745.726 C 715.122 755.691, 689.866 761.899, 663.147 764.615 C 644.081 766.553, 633.586 765.840, 615 761.346 C 563.676 748.937, 523.213 706.356, 511.330 652.250 C 510.334 647.712, 509.228 644, 508.874 644 C 506.333 644, 507.534 674.314, 510.574 686.886 C 519.568 724.082, 542.112 756.049, 574.374 777.353 C 580.743 781.559, 586.145 785, 586.378 785 C 586.611 785, 590.559 786.740, 595.151 788.868 C 605.609 793.712, 616.503 797.225, 630 800.104 C 639.199 802.066, 643.474 802.345, 664.500 802.359 C 686.163 802.373, 690.030 802.109, 704.206 799.649 C 728.507 795.433, 740.587 792.014, 766 782.160 C 789.829 772.919, 825.919 754.066, 857.829 734.188 C 862.410 731.335, 866.316 729, 866.508 729 C 866.701 729, 869.478 727.272, 872.679 725.160 C 882.266 718.834, 931.635 689, 932.515 689 C 932.723 689, 935.504 687.492, 938.696 685.650 C 966.265 669.735, 1001.269 654.329, 1028 646.345 C 1050.815 639.532, 1053.447 638.920, 1074.500 635.540 C 1099.775 631.481, 1110.858 630.771, 1141.500 631.244 C 1170.551 631.692, 1205.691 634.456, 1215 637.023 C 1216.925 637.554, 1219.609 637.991, 1220.964 637.994 C 1225.419 638.005, 1221.262 635.496, 1208.500 630.471 C 1177.257 618.170, 1151.279 611.648, 1117.030 607.508 C 1099.543 605.394, 1062.031 605.662, 1043 608.037 M 542.633 618.515 C 541.441 621.619, 541.999 639.773, 543.534 647.866 C 545.762 659.612, 548.353 667.104, 554.473 679.500 C 570.499 711.961, 599.216 733.871, 636.254 741.896 C 648.087 744.460, 664.567 744.794, 667.559 742.532 C 669.474 741.083, 669.473 741.063, 667.500 741.017 C 664.069 740.937, 642.817 733.397, 632.709 728.673 C 608.424 717.325, 586.611 699.002, 570.455 676.380 C 565.948 670.068, 557.067 654.334, 555.190 649.334 C 554.605 647.775, 553.003 643.800, 551.630 640.500 C 550.257 637.200, 548.175 630.900, 547.003 626.500 C 544.708 617.887, 543.630 615.916, 542.633 618.515 M 1142.500 653.135 C 1088.487 655.358, 1038.815 671.479, 973.500 707.983 C 963.356 713.652, 939.537 728.741, 911.614 747.185 C 901.777 753.683, 893.495 759, 893.209 759 C 892.923 759, 891.296 760.033, 889.594 761.297 C 881.498 767.306, 851.269 784.101, 845.017 786.064 C 839.841 787.689, 828.623 792.045, 828.072 792.644 C 826.791 794.036, 845.919 791.705, 854.883 789.376 C 877.545 783.490, 907.504 770.296, 946.500 749.028 C 949.250 747.528, 954.650 744.588, 958.500 742.494 C 967.886 737.389, 1012.484 715.093, 1022.500 710.498 C 1056.165 695.053, 1102.602 679.878, 1127.897 676.054 C 1131.965 675.439, 1135.653 674.715, 1136.091 674.444 C 1138.141 673.177, 1166.739 670.875, 1187 670.346 C 1210.688 669.728, 1247.017 671.737, 1259.750 674.369 C 1263.188 675.080, 1266 675.358, 1266 674.989 C 1266 674.382, 1261.714 672.639, 1246.500 667.058 C 1234.639 662.707, 1213.183 657.722, 1195 655.094 C 1179.021 652.784, 1164.342 652.237, 1142.500 653.135 M 642 835.656 C 637.595 837.433, 633 844.752, 633 849.992 C 633 857.843, 638.375 864.041, 645.802 864.755 C 652.110 865.361, 656.349 863.196, 658.990 858.019 C 664.185 847.837, 658.632 836.098, 648.283 835.382 C 645.652 835.199, 642.825 835.323, 642 835.656 M 887.984 840.852 C 882.636 843.694, 880 848.281, 880 854.744 C 880 863.699, 884.584 868.965, 893.088 869.782 C 902.376 870.675, 908.641 863.746, 907.793 853.520 C 907.276 847.285, 904.129 842.370, 899.383 840.387 C 894.931 838.526, 892.146 838.640, 887.984 840.852 M 1172 842.432 C 1169.182 843.955, 1157.193 846, 1151.077 846 C 1146.385 846, 1145.671 847.398, 1146.188 855.566 L 1146.500 860.500 1152.500 860.791 L 1158.500 861.082 1158.218 911.291 C 1158.040 942.864, 1157.551 962.473, 1156.900 964.120 C 1155.903 966.644, 1152.359 969, 1149.560 969 C 1148.820 969, 1147.941 969.712, 1147.607 970.582 C 1146.626 973.138, 1146.911 979.827, 1148.031 980.519 C 1148.598 980.869, 1159.510 981.209, 1172.281 981.274 L 1195.500 981.393 1195.500 974.446 L 1195.500 967.500 1190.250 967.198 L 1185 966.895 1185 903.948 L 1185 841 1179.750 841.040 C 1176.862 841.062, 1173.375 841.688, 1172 842.432 M 1127.115 870.657 C 1123.248 872.626, 1115.547 881.923, 1113.785 886.750 C 1112.416 890.499, 1112.195 890.554, 1107.218 888.365 C 1104.782 887.294, 1099.520 886.564, 1091.959 886.249 C 1080.697 885.780, 1080.229 885.847, 1072.620 889.014 C 1062.946 893.042, 1055.163 900.218, 1051.287 908.683 C 1045.685 920.920, 1048.670 936.282, 1058.241 944.474 C 1060.506 946.413, 1062.729 948, 1063.180 948 C 1065.546 948, 1063.440 950.800, 1059.503 952.889 C 1056.777 954.335, 1053.825 957.059, 1052.003 959.809 C 1049.501 963.586, 1049 965.346, 1049 970.355 C 1049 976.261, 1049.089 976.453, 1054 981.187 C 1056.750 983.838, 1059 986.188, 1059 986.409 C 1059 986.631, 1056.812 988.384, 1054.138 990.305 C 1047.492 995.080, 1044.620 1001.070, 1045.191 1008.965 C 1046.342 1024.873, 1062.375 1032.983, 1090.164 1031.713 C 1108.343 1030.882, 1121.589 1026.206, 1131.181 1017.234 C 1138.224 1010.646, 1139.395 1007.991, 1139.440 998.500 C 1139.484 989.510, 1137.425 984.219, 1132.162 979.790 C 1125.783 974.422, 1111.079 970.550, 1091 968.951 C 1075.299 967.701, 1072.446 967.151, 1070.499 964.999 C 1066.440 960.514, 1072.972 956.244, 1082.216 957.339 C 1100.139 959.462, 1118.696 951.227, 1126.948 937.490 C 1130.039 932.343, 1130.440 930.828, 1130.822 922.843 C 1131.309 912.662, 1130.071 908.265, 1124.523 900.462 C 1121.191 895.775, 1121.147 895.583, 1122.589 892.083 C 1123.401 890.112, 1124.813 887.937, 1125.726 887.248 C 1127.122 886.196, 1127.844 886.435, 1130.259 888.748 C 1132.613 891.004, 1134.037 891.500, 1138.152 891.500 C 1142.414 891.500, 1143.538 891.076, 1145.587 888.694 C 1148.997 884.730, 1149.022 876.299, 1145.635 872.362 C 1143.595 869.991, 1142.390 869.565, 1136.885 869.273 C 1132.281 869.029, 1129.556 869.415, 1127.115 870.657 M 741.500 884.329 C 736.015 886.146, 729.839 889.048, 727.824 890.755 C 725.065 893.094, 722.561 891.905, 722 887.989 C 721.537 884.761, 721.210 884.476, 717.622 884.182 C 715.293 883.991, 711.856 884.676, 709.019 885.896 C 706.204 887.107, 700.902 888.170, 695.898 888.527 C 682.140 889.506, 682.859 889.067, 683.203 896.281 L 683.500 902.500 690 903 L 696.500 903.500 696.168 931 C 695.985 946.125, 695.611 959.625, 695.336 961 C 694.129 967.049, 692.863 968.834, 689.161 969.705 C 685.522 970.562, 685.498 970.602, 685.200 976.301 L 684.899 982.036 709.200 981.768 L 733.500 981.500 733.500 975.500 L 733.500 969.500 728.250 969.198 C 725.101 969.016, 722.950 968.416, 722.874 967.698 C 722.265 961.910, 723.295 906.349, 724.028 905.466 C 726.365 902.651, 734.115 899.722, 739.433 899.645 C 746.007 899.550, 749.504 901.669, 752.500 907.565 C 754.348 911.201, 754.500 913.478, 754.500 937.543 C 754.500 960.912, 754.316 963.868, 752.705 966.327 C 751.682 967.888, 749.632 969.324, 747.942 969.662 C 744.650 970.320, 743.647 972.571, 744.176 978.112 L 744.500 981.500 768.750 981.768 L 793 982.036 793 975.568 L 793 969.100 787.250 968.800 L 781.500 968.500 780.988 937.500 C 780.403 902.035, 779.876 904.298, 789.507 900.913 C 799.256 897.486, 807.110 900.044, 810.761 907.833 C 812.248 911.004, 812.481 915.027, 812.490 937.597 C 812.501 966.326, 812.092 968.632, 806.796 969.691 C 804.115 970.227, 804 970.493, 804 976.125 L 804 982 827.393 982 C 853.330 982, 852.015 982.366, 851.985 975.168 C 851.963 969.922, 851.121 969.158, 844.978 968.810 L 839.500 968.500 839.858 945.500 C 840.403 910.454, 838.284 898.437, 830.115 890.269 C 824.627 884.781, 820.625 883.499, 809 883.506 C 799.368 883.512, 797.899 883.778, 791.231 886.720 C 787.233 888.484, 782.338 891.166, 780.352 892.681 L 776.742 895.434 773.621 891.867 C 768.168 885.635, 763.936 883.786, 754.172 883.372 C 748.689 883.140, 744.029 883.492, 741.500 884.329 M 387.500 885.872 C 375.260 890.965, 369.221 897.640, 367.481 908 C 364.243 927.275, 372.161 935.500, 406.500 948.533 C 415.326 951.882, 421.669 955.512, 422.982 957.966 C 424.613 961.015, 424.164 965.522, 421.946 968.341 C 416.333 975.478, 396.532 973.604, 386.125 964.952 C 384.819 963.866, 382.532 960.620, 381.043 957.739 L 378.336 952.500 373.418 952.500 L 368.500 952.500 368.500 968 L 368.500 983.500 373.794 984.032 C 379.817 984.637, 380.449 984.400, 381.462 981.159 C 381.961 979.558, 382.716 978.993, 383.846 979.373 C 384.756 979.678, 388.875 981.120, 393 982.575 C 399.851 984.993, 401.495 985.185, 412 984.790 C 421.916 984.417, 424.281 983.984, 429.170 981.644 C 435.399 978.663, 441.128 973.357, 443.489 968.383 C 447.961 958.958, 445.956 945.462, 439.028 938.365 C 432 931.163, 424.316 927.272, 401.500 919.361 C 391.303 915.826, 387.992 912.746, 388.022 906.827 C 388.062 899.112, 392.295 895.991, 402.684 896.017 C 414.223 896.045, 424.053 902.630, 427.478 912.627 C 428.787 916.447, 428.882 916.504, 434.428 916.801 L 440.050 917.101 439.775 900.801 L 439.500 884.500 433.500 884.500 C 428.039 884.500, 427.471 884.702, 427.180 886.750 C 426.783 889.549, 426.689 889.546, 418.596 886.500 C 412.989 884.390, 410.361 884.016, 401.727 884.104 C 394.658 884.175, 390.265 884.721, 387.500 885.872 M 645.705 885.596 C 643.446 886.820, 625.534 889.900, 620.202 889.980 C 619.247 889.995, 618.983 891.649, 619.202 896.250 L 619.500 902.500 625.660 902.795 C 629.380 902.974, 631.959 903.568, 632.169 904.295 C 632.360 904.958, 632.288 918.571, 632.008 934.546 C 631.443 966.840, 631.179 968.123, 624.745 969.782 C 621.615 970.589, 621.489 970.820, 621.200 976.309 L 620.900 982 645.343 982 C 664.073 982, 669.899 981.706, 670.269 980.741 C 670.535 980.048, 670.528 977.144, 670.254 974.287 L 669.754 969.092 664.127 968.796 L 658.500 968.500 658.239 926.250 L 657.978 884 653.239 884.040 C 650.633 884.062, 647.242 884.762, 645.705 885.596 M 456.250 886.652 C 454.890 887.212, 454.519 895.696, 455.769 897.660 C 456.174 898.298, 457.840 898.973, 459.471 899.160 C 462.077 899.459, 462.662 900.165, 464.307 905 C 466.748 912.171, 480.958 953.054, 481.686 955 C 481.995 955.825, 484.211 962.095, 486.612 968.934 C 489.013 975.772, 491.545 981.728, 492.238 982.169 C 493.779 983.146, 505.808 983.133, 508.297 982.150 C 509.578 981.645, 512.096 975.423, 517.071 960.471 C 520.909 948.937, 524.740 936.800, 525.585 933.500 C 526.430 930.200, 527.561 925.813, 528.099 923.750 C 529.185 919.586, 532 918.540, 532 922.300 C 532 923.565, 532.403 925.027, 532.896 925.550 C 533.389 926.072, 534.684 929.875, 535.773 934 C 536.862 938.125, 540.692 950.479, 544.282 961.454 C 549.044 976.006, 551.310 981.604, 552.656 982.133 C 555.893 983.408, 569.663 983.116, 570.754 981.750 C 571.304 981.063, 573.397 975.550, 575.407 969.500 C 577.416 963.450, 580.366 954.900, 581.961 950.500 C 583.557 946.100, 586.954 936.425, 589.511 929 C 597.116 906.913, 600.354 901.472, 607.750 898.347 C 610.791 897.062, 611 896.656, 611 892.048 L 611 887.123 606.750 886.508 C 604.413 886.170, 596.425 886.030, 589 886.197 L 575.500 886.500 575.202 892.750 L 574.905 899 579.393 899 C 581.862 899, 584.160 899.450, 584.500 899.999 C 584.839 900.549, 582.901 907.862, 580.192 916.249 C 571.722 942.478, 570.182 947.515, 569.469 951.312 C 568.538 956.277, 566.339 956.003, 564.969 950.750 C 562.328 940.617, 554.054 911.920, 549.341 896.544 C 548 892.167, 546.419 888.005, 545.829 887.294 C 544.613 885.829, 529.382 885.471, 527.199 886.856 C 526.483 887.310, 524.541 892.140, 522.883 897.591 C 516.681 917.976, 510.702 938.733, 508.996 945.800 C 507.329 952.703, 506.439 954.868, 505.658 953.917 C 505.470 953.687, 503.602 946.975, 501.507 939 C 499.411 931.025, 496.891 921.575, 495.906 918 C 492.727 906.459, 493.619 899.856, 498.613 897.957 C 500.894 897.090, 501.079 896.564, 500.802 891.755 L 500.500 886.500 479 886.319 C 467.175 886.220, 456.938 886.370, 456.250 886.652 M 891.500 888.129 C 888.591 889.333, 882.572 890.541, 877.109 891.018 C 871.193 891.535, 867.392 892.331, 866.836 893.169 C 866.351 893.901, 866.077 896.975, 866.227 900 L 866.500 905.500 872.564 905.793 L 878.627 906.086 878.193 934.293 C 877.712 965.578, 877.384 967.328, 871.737 968.784 C 868.616 969.589, 868.489 969.823, 868.200 975.309 C 868.016 978.794, 868.307 981.012, 868.950 981.030 C 880.155 981.350, 915.263 980.955, 915.998 980.501 C 916.549 980.161, 917 977.257, 917 974.048 C 917 967.450, 916.516 967, 909.430 967 L 905.023 967 904.761 926.750 L 904.500 886.500 900.500 886.280 C 898.253 886.157, 894.308 886.967, 891.500 888.129 M 958.500 886.732 C 956.850 886.970, 953.004 888.002, 949.953 889.025 C 946.838 890.069, 941.011 890.974, 936.660 891.089 C 927.557 891.330, 926.729 892.135, 927.199 900.280 L 927.500 905.500 933.833 905.800 L 940.166 906.100 939.767 933.300 C 939.354 961.537, 938.736 966.001, 934.961 968.021 C 933.955 968.559, 932.245 969, 931.162 969 C 929.506 969, 929.138 969.811, 928.847 974.096 C 928.656 976.899, 928.791 979.662, 929.146 980.236 C 929.846 981.369, 975.179 981.625, 976.989 980.507 C 977.545 980.163, 978 977.257, 978 974.048 C 978 967.449, 977.517 967, 970.418 967 L 966 967 966 942.640 C 966 929.241, 966.288 916.177, 966.640 913.608 C 967.422 907.905, 970.379 905.444, 978.493 903.742 C 986.578 902.046, 991.605 903.954, 994.985 910 C 997.439 914.391, 997.507 915.058, 997.798 937.500 C 998.065 958.043, 997.905 960.874, 996.298 964 C 995.065 966.401, 993.401 967.854, 991 968.627 C 987.606 969.720, 987.491 969.924, 987.200 975.377 C 986.983 979.446, 987.259 981.023, 988.200 981.085 C 989.382 981.162, 1033.495 981.115, 1035.250 981.034 C 1035.662 981.015, 1036 978.084, 1036 974.519 C 1036 967.392, 1036.002 967.394, 1028.070 966.770 L 1024.641 966.500 1024.854 944 C 1025.089 919.194, 1023.798 907.494, 1019.989 899.909 C 1015.020 890.015, 1009.495 886.817, 996.297 886.198 C 986.445 885.735, 981.065 886.981, 972.227 891.773 C 967.532 894.319, 966 894.040, 966 890.641 C 966 888.211, 964.232 885.910, 962.550 886.150 C 961.972 886.232, 960.150 886.494, 958.500 886.732 M 1203.250 888.662 C 1202.435 888.991, 1202 891.364, 1202 895.476 C 1202 902.271, 1202.569 903, 1207.875 903 C 1210.369 903, 1210.684 903.461, 1211.789 908.730 C 1212.566 912.436, 1219.174 926.910, 1230.496 949.702 C 1240.123 969.085, 1248 985.971, 1248 987.226 C 1248 990.065, 1243.938 1001.383, 1240.233 1008.868 C 1236.963 1015.474, 1233.993 1016.512, 1232.951 1011.413 C 1232.088 1007.197, 1231.534 1006.480, 1227.766 1004.704 C 1223.667 1002.772, 1220.100 1003.436, 1215.942 1006.907 C 1213.148 1009.240, 1212.631 1010.400, 1212.229 1015.248 C 1211.639 1022.372, 1214.161 1026.932, 1220.353 1029.929 C 1231.181 1035.171, 1243.260 1030.424, 1250.966 1017.901 C 1255.006 1011.335, 1257.839 1004.113, 1270.059 969.234 C 1291.233 908.794, 1292.007 907.009, 1299.065 902.339 C 1303.051 899.701, 1303.087 899.620, 1302.795 894.087 L 1302.500 888.500 1286.500 888.500 L 1270.500 888.500 1270.198 894.909 C 1269.862 902.041, 1270.494 902.960, 1275.750 902.985 C 1279.492 903.002, 1279.577 903.215, 1277.351 906.983 C 1276.444 908.518, 1272.476 919.613, 1268.534 931.637 C 1264.591 943.662, 1260.946 953.367, 1260.433 953.204 C 1259.495 952.906, 1249.412 930.924, 1243.846 917.042 C 1240.108 907.721, 1240.493 904.087, 1245.530 901.115 C 1248.743 899.219, 1249 898.703, 1249 894.141 C 1249 890.571, 1248.564 889.047, 1247.418 888.607 C 1245.534 887.884, 1205.053 887.935, 1203.250 888.662 M 1086.500 898.814 C 1082.327 900.245, 1079.745 902.662, 1077.221 907.500 C 1074.961 911.831, 1074.631 913.626, 1074.754 920.922 C 1074.875 928.140, 1075.336 930.240, 1077.975 935.600 C 1080.664 941.064, 1081.611 942.068, 1085.454 943.535 C 1089.385 945.037, 1090.313 945.063, 1094.177 943.778 C 1097.582 942.645, 1099.137 941.312, 1101.500 937.498 C 1104.315 932.956, 1104.500 932.035, 1104.499 922.578 C 1104.499 913.510, 1104.222 911.976, 1101.741 907.268 C 1100.225 904.390, 1097.952 901.359, 1096.690 900.533 C 1093.873 898.687, 1089.179 897.895, 1086.500 898.814 M 1071.184 993.493 C 1068.339 997.110, 1067.479 1002.318, 1068.928 1007.155 C 1072.889 1020.374, 1102.942 1023.045, 1115.238 1011.271 C 1120.604 1006.132, 1119.662 998.945, 1113.184 995.595 C 1109.959 993.928, 1099.098 992.387, 1083.908 991.442 L 1073.316 990.783 1071.184 993.493 M 347 1050.586 C 340.973 1052.745, 335.898 1055.651, 334.267 1057.877 C 327.435 1067.202, 330.503 1077.001, 341.594 1081.280 C 343.845 1082.148, 351.030 1083.356, 357.560 1083.964 C 371.416 1085.253, 375.333 1086.905, 375.803 1091.659 C 376.550 1099.211, 366.858 1103.863, 352.825 1102.688 C 344.980 1102.031, 340.459 1099.962, 338.176 1095.984 C 336.330 1092.768, 334.094 1091.808, 331.642 1093.180 C 329.194 1094.551, 329.642 1097.110, 333.054 1101.249 C 337.229 1106.314, 343.751 1108.997, 353.593 1109.698 C 367.815 1110.712, 379.146 1106.091, 382.404 1097.949 C 384.481 1092.758, 384.417 1090.737, 382.027 1086.053 C 379.217 1080.545, 372.266 1078.300, 352.367 1076.475 C 344.146 1075.721, 339.059 1073.189, 338.885 1069.765 C 338.424 1060.706, 343.591 1057.074, 357 1057.029 C 365.156 1057.002, 370.051 1058.678, 373.574 1062.703 C 378.928 1068.820, 383.724 1064.634, 378.985 1057.979 C 375.195 1052.656, 369.809 1050.645, 358.500 1050.328 C 353 1050.174, 347.825 1050.290, 347 1050.586 M 841.500 1051.328 C 827.747 1056.721, 820.036 1068.428, 821.270 1082.042 C 823.526 1106.919, 851.782 1118.793, 869.833 1102.449 L 874.500 1098.224 874.367 1088.493 C 874.271 1081.469, 873.854 1078.522, 872.867 1077.897 C 872.115 1077.420, 866.920 1077.024, 861.321 1077.015 C 853.387 1077.003, 850.796 1077.346, 849.571 1078.571 C 848.707 1079.436, 848 1080.304, 848 1080.500 C 848 1080.696, 848.707 1081.564, 849.571 1082.429 C 850.751 1083.609, 853.242 1084, 859.571 1084 L 868 1084 868 1089.461 C 868 1093.818, 867.545 1095.359, 865.750 1097.081 C 859.774 1102.816, 849.091 1104.587, 841.440 1101.112 C 836.860 1099.032, 831.362 1092.667, 829.400 1087.175 C 824.570 1073.650, 833.947 1058.791, 848.812 1056.414 C 853.741 1055.626, 861.725 1058.089, 865.459 1061.550 C 868.681 1064.535, 870.580 1064.654, 872.023 1061.958 C 872.949 1060.226, 872.605 1059.405, 869.755 1056.555 C 864.073 1050.873, 849.525 1048.182, 841.500 1051.328 M 944.627 1051.468 C 939.065 1053.451, 933.724 1058.131, 932.072 1062.471 C 930.894 1065.567, 930.860 1067.029, 931.882 1070.848 C 932.562 1073.392, 933.829 1076.258, 934.696 1077.216 C 937.521 1080.338, 946.366 1082.829, 958.600 1083.949 C 972.522 1085.224, 975.320 1086.588, 975.810 1092.342 C 976.230 1097.282, 972.705 1100.504, 965.169 1102.069 C 959.007 1103.348, 947.650 1102.709, 943.578 1100.854 C 942.202 1100.227, 939.928 1097.978, 938.524 1095.857 C 935.870 1091.847, 934.239 1091.161, 932.200 1093.200 C 928.802 1096.598, 932.980 1103.160, 940.909 1106.878 C 945.890 1109.214, 947.701 1109.498, 957.500 1109.485 C 967.545 1109.471, 968.955 1109.231, 973.745 1106.720 C 985.319 1100.654, 987.889 1087.560, 978.688 1081.531 C 976.042 1079.797, 963.925 1077.444, 952.722 1076.488 C 943.150 1075.671, 939 1072.929, 939 1067.420 C 939 1063.046, 943.534 1058.504, 948.764 1057.640 C 960.084 1055.768, 969.125 1057.520, 973.817 1062.493 C 977.689 1066.597, 980.355 1066.730, 980.807 1062.841 C 981.244 1059.072, 976.097 1053.562, 970.292 1051.584 C 964.519 1049.617, 950.005 1049.551, 944.627 1051.468 M 1019.500 1052.423 C 1012.044 1055.526, 1005.822 1062.009, 1003.451 1069.146 C 999.718 1080.387, 1003.727 1095.407, 1012.318 1102.364 C 1019.727 1108.365, 1022.720 1109.473, 1031.500 1109.467 C 1038.208 1109.462, 1040.308 1109.035, 1044.500 1106.824 C 1050.608 1103.602, 1055.309 1098.841, 1054.831 1096.360 C 1054.217 1093.172, 1051.270 1093.731, 1045.424 1098.145 C 1040.413 1101.928, 1039.033 1102.467, 1033.431 1102.824 C 1028.378 1103.145, 1026.179 1102.781, 1022.540 1101.019 C 1005.852 1092.941, 1004.272 1067.193, 1019.975 1059.250 C 1023.385 1057.525, 1026.137 1057, 1031.762 1057 C 1039.353 1057, 1043.428 1058.341, 1047.699 1062.243 C 1052.002 1066.175, 1055.877 1061.638, 1051.877 1057.352 C 1047.602 1052.772, 1042.172 1050.685, 1033.500 1050.291 C 1026.717 1049.982, 1024.587 1050.307, 1019.500 1052.423 M 1162.290 1052.976 C 1155.690 1056.313, 1152.245 1059.721, 1148.736 1066.384 C 1145.624 1072.294, 1145.722 1085.373, 1148.934 1092.714 C 1157.949 1113.316, 1186.852 1115.933, 1199.921 1097.330 C 1205.280 1089.702, 1206.447 1073.665, 1202.237 1065.500 C 1197.433 1056.181, 1188.451 1050.857, 1176.500 1050.245 C 1169.099 1049.866, 1168.035 1050.070, 1162.290 1052.976 M 1242.572 1051.958 C 1232.328 1056.082, 1225.968 1065.085, 1225.234 1076.500 C 1224.317 1090.752, 1229.922 1101.144, 1242 1107.585 C 1244.682 1109.015, 1247.603 1109.447, 1254.500 1109.431 C 1262.522 1109.413, 1264.012 1109.109, 1268.208 1106.635 C 1277.216 1101.324, 1282.654 1092.484, 1283.672 1081.500 C 1284.732 1070.054, 1279.765 1060.347, 1269.697 1054.186 C 1264.504 1051.009, 1263.031 1050.601, 1255.697 1050.305 C 1249.281 1050.046, 1246.429 1050.405, 1242.572 1051.958 M 401.028 1051.961 C 399.020 1053.231, 400.539 1058.721, 406.309 1071.045 C 408.744 1076.245, 413.528 1086.877, 416.940 1094.671 C 426.368 1116.204, 425.799 1116.474, 441.907 1082.816 C 445.245 1075.840, 448.418 1069.860, 448.956 1069.527 C 450.206 1068.755, 450.429 1069.149, 460.488 1089.927 C 465.128 1099.511, 469.564 1107.993, 470.346 1108.774 C 473.722 1112.151, 475.689 1108.654, 494.601 1065.656 C 499.694 1054.075, 499.754 1051.500, 494.930 1051.500 C 492.823 1051.500, 491.619 1053.721, 483.332 1072.907 C 474.643 1093.024, 472.628 1096.985, 471.617 1095.933 C 471.388 1095.695, 467.139 1087.145, 462.174 1076.934 C 457.210 1066.723, 452.462 1057.798, 451.622 1057.102 C 448.362 1054.395, 446.462 1056.869, 436.946 1076.212 C 431.751 1086.773, 427.050 1095.536, 426.500 1095.686 C 425.950 1095.836, 421.761 1087.267, 417.190 1076.645 C 406.063 1050.784, 405.134 1049.365, 401.028 1051.961 M 522.020 1052.962 C 520.465 1055.868, 521.043 1106.447, 522.649 1108.051 C 523.286 1108.687, 524.743 1108.899, 525.915 1108.527 C 528.012 1107.861, 528.029 1107.605, 527.765 1079.678 C 527.501 1051.571, 527.495 1051.499, 525.318 1051.189 C 523.915 1050.990, 522.737 1051.623, 522.020 1052.962 M 553.309 1052.250 C 552.319 1053.780, 551.609 1097.857, 552.481 1103.700 C 552.941 1106.784, 553.670 1108.078, 555.228 1108.572 C 559.355 1109.882, 560 1107.074, 560 1087.809 C 560 1077.627, 560.394 1070, 560.921 1070 C 561.427 1070, 565.704 1075.850, 570.425 1083 C 579.348 1096.515, 581.270 1098.050, 584.514 1094.250 C 585.335 1093.287, 589.288 1087.378, 593.298 1081.118 C 597.308 1074.858, 601.019 1069.794, 601.544 1069.865 C 602.093 1069.939, 602.713 1077.943, 603 1088.640 C 603.428 1104.604, 603.740 1107.437, 605.166 1108.335 C 606.374 1109.095, 607.268 1109.022, 608.416 1108.070 C 609.789 1106.930, 610 1103.192, 610 1080 C 610 1056.808, 609.789 1053.070, 608.416 1051.930 C 605.518 1049.526, 604.123 1051.208, 588.070 1076.459 C 585.083 1081.156, 582.051 1085, 581.332 1085 C 580.613 1085, 578.823 1083.088, 577.354 1080.750 C 559.631 1052.553, 555.942 1048.181, 553.309 1052.250 M 637.488 1053.250 C 637.185 1054.487, 637.064 1067.151, 637.219 1081.392 C 637.471 1104.620, 637.677 1107.395, 639.222 1108.369 C 640.344 1109.076, 641.280 1109.114, 641.904 1108.478 C 642.432 1107.940, 643.007 1098.987, 643.182 1088.582 C 643.390 1076.210, 643.873 1069.541, 644.578 1069.306 C 645.172 1069.109, 646.511 1070.534, 647.556 1072.474 C 648.600 1074.413, 649.802 1076, 650.227 1076 C 650.652 1076, 651 1076.421, 651 1076.934 C 651 1077.448, 653.729 1081.948, 657.064 1086.934 C 661.051 1092.895, 663.760 1096, 664.975 1096 C 667.269 1096, 669.656 1093.066, 678.376 1079.528 C 682.158 1073.657, 685.635 1069.235, 686.103 1069.703 C 686.571 1070.171, 687.076 1078.818, 687.227 1088.919 C 687.463 1104.781, 687.727 1107.427, 689.166 1108.334 C 690.375 1109.096, 691.268 1109.023, 692.416 1108.070 C 693.789 1106.930, 694 1103.192, 694 1080 C 694 1056.808, 693.789 1053.070, 692.416 1051.930 C 691.289 1050.995, 690.352 1050.910, 689.166 1051.635 C 687.386 1052.723, 680.067 1063.292, 671.774 1076.750 C 668.978 1081.287, 666.140 1085, 665.466 1085 C 664.792 1085, 659.248 1077.350, 653.145 1068 C 644.882 1055.341, 641.537 1051, 640.043 1051 C 638.794 1051, 637.831 1051.848, 637.488 1053.250 M 720.713 1051.621 C 720.321 1052.013, 720 1064.578, 720 1079.544 C 720 1103.152, 720.210 1106.929, 721.584 1108.070 C 722.733 1109.023, 723.625 1109.096, 724.834 1108.333 C 726.324 1107.393, 726.500 1104.332, 726.500 1079.391 L 726.500 1051.500 723.963 1051.204 C 722.567 1051.041, 721.104 1051.229, 720.713 1051.621 M 751.597 1053.166 C 750.239 1055.103, 750 1059.141, 750 1080.112 C 750 1103.034, 750.137 1104.945, 751.937 1107.139 C 753.515 1109.062, 754.211 1109.294, 755.687 1108.392 C 757.328 1107.389, 757.526 1105.328, 757.770 1086.642 C 757.929 1074.513, 758.431 1066, 758.987 1066 C 759.508 1066, 765.823 1073.763, 773.022 1083.250 C 790.671 1106.513, 792.793 1109, 794.993 1109 C 796.035 1109, 797.587 1108, 798.443 1106.777 C 799.751 1104.911, 800 1100.578, 800 1079.712 C 800 1054.359, 799.551 1051, 796.165 1051 C 792.305 1051, 792 1052.701, 792 1074.200 C 792 1085.640, 791.632 1095, 791.182 1095 C 790.423 1095, 787.023 1090.650, 765.483 1062.119 C 756.908 1050.761, 754.409 1049.150, 751.597 1053.166 M 1077.452 1052.265 C 1077.185 1052.961, 1077.086 1065.624, 1077.233 1080.406 C 1077.473 1104.576, 1077.673 1107.393, 1079.222 1108.369 C 1082.505 1110.438, 1083.485 1107.679, 1083.720 1095.701 L 1083.940 1084.500 1100.220 1084.500 L 1116.500 1084.500 1116.840 1095.500 C 1117.222 1107.877, 1118.227 1110.410, 1121.848 1108.115 C 1122.925 1107.432, 1123.187 1101.805, 1123.152 1079.986 C 1123.128 1064.179, 1122.711 1052.311, 1122.161 1051.761 C 1121.639 1051.239, 1120.377 1050.972, 1119.356 1051.167 C 1117.699 1051.484, 1117.446 1052.861, 1117 1064.011 L 1116.500 1076.500 1100.250 1076.775 L 1084 1077.050 1083.920 1070.275 C 1083.805 1060.468, 1083.247 1053.209, 1082.518 1052.029 C 1081.622 1050.579, 1078.034 1050.747, 1077.452 1052.265 M 1307.713 1051.621 C 1307.321 1052.013, 1307 1064.850, 1307 1080.148 L 1307 1107.962 1309.250 1108.515 C 1310.487 1108.819, 1320.275 1108.940, 1331 1108.784 L 1350.500 1108.500 1350.816 1105.750 C 1350.990 1104.237, 1350.990 1102.924, 1350.816 1102.832 C 1350.642 1102.739, 1342.400 1102.401, 1332.500 1102.082 L 1314.500 1101.500 1314 1076.500 L 1313.500 1051.500 1310.963 1051.204 C 1309.567 1051.041, 1308.104 1051.229, 1307.713 1051.621 M 1169.500 1056.693 C 1168.400 1056.947, 1165.371 1058.579, 1162.769 1060.320 C 1156.072 1064.801, 1153.609 1070.743, 1154.215 1080.956 C 1154.683 1088.848, 1156.609 1093.942, 1160.374 1097.246 C 1168.799 1104.640, 1183.088 1104.854, 1190.869 1097.702 C 1198.074 1091.079, 1200.222 1076.853, 1195.364 1067.927 C 1190.486 1058.964, 1179.794 1054.320, 1169.500 1056.693 M 1248.358 1056.899 C 1237.099 1059.781, 1231.014 1069.811, 1232.558 1082.944 C 1233.391 1090.028, 1236.735 1095.852, 1242.105 1099.570 C 1245.935 1102.222, 1247.103 1102.499, 1254.418 1102.490 C 1261.689 1102.481, 1262.934 1102.187, 1266.826 1099.557 C 1269.587 1097.691, 1272.063 1094.836, 1273.670 1091.665 C 1275.900 1087.263, 1276.148 1085.704, 1275.844 1078.004 C 1275.514 1069.678, 1275.344 1069.123, 1271.793 1064.791 C 1269.754 1062.304, 1266.492 1059.512, 1264.543 1058.587 C 1260.309 1056.578, 1252.709 1055.786, 1248.358 1056.899" stroke="none" fill="#03042b" fill-rule="evenodd"/>
</svg>