<svg xmlns="http://www.w3.org/2000/svg" width="1632" height="1632" viewBox="0 0 1632 1632" version="1.1">
	<path d="M 0 816.001 L 0 1632.001 816.250 1631.751 L 1632.500 1631.500 1632.751 815.750 L 1633.001 -0 816.501 -0 L 0 0 0 816.001 M 0.498 816.500 C 0.498 1265.300, 0.611 1448.750, 0.750 1224.168 C 0.889 999.585, 0.889 632.385, 0.750 408.168 C 0.611 183.950, 0.498 367.700, 0.498 816.500 M 606.156 537.859 C 598.408 552.395, 594 572.609, 594.021 593.500 C 594.048 619.166, 599.828 640.634, 612.649 662.686 C 630.803 693.912, 661.760 718.240, 691.750 724.851 C 696.693 725.940, 697.204 725.142, 693.112 722.725 C 682.915 716.702, 662.550 697.921, 651.981 684.795 C 632.809 660.983, 623.370 642.304, 613.933 609.500 C 610.405 597.239, 609.500 587.042, 609.518 559.750 C 609.528 544.487, 609.478 532, 609.407 532 C 609.336 532, 607.873 534.636, 606.156 537.859 M 1043.500 607.931 C 1010.207 612.127, 973.163 622.591, 942.706 636.402 C 940.943 637.201, 937.250 638.840, 934.500 640.044 C 928.569 642.639, 899.939 656.891, 898.500 657.964 C 897.950 658.374, 894.449 660.365, 890.719 662.389 C 878.635 668.947, 871.660 673.013, 844.500 689.338 C 822.401 702.621, 804.886 712.951, 798 716.764 C 795.525 718.135, 789.097 721.707, 783.716 724.703 C 775.026 729.541, 763.097 735.411, 746 743.261 C 740.661 745.713, 724.234 751.626, 711 755.860 C 700.869 759.102, 681.034 762.762, 663.500 764.626 C 644.990 766.594, 632.218 765.729, 614.544 761.311 C 563.213 748.481, 523.173 706.172, 511.330 652.250 C 510.334 647.712, 509.235 644, 508.888 644 C 506.396 644, 507.585 674.532, 510.556 686.813 C 519.574 724.094, 542.085 756.031, 574.374 777.353 C 580.743 781.559, 586.145 785, 586.378 785 C 586.611 785, 590.559 786.744, 595.151 788.876 C 618.043 799.502, 643.367 803.885, 674.386 802.590 C 732.594 800.160, 782.136 781.002, 869 727.333 C 903.596 705.957, 931.698 689, 932.525 689 C 932.738 689, 935.294 687.594, 938.206 685.876 C 968.888 667.769, 1004.116 653.066, 1044.753 641.403 C 1054.108 638.719, 1074.758 635.180, 1096.500 632.536 C 1111.394 630.724, 1158.576 630.371, 1171.591 631.974 C 1175.941 632.510, 1186.665 633.648, 1195.423 634.503 C 1204.181 635.358, 1213.247 636.537, 1215.571 637.122 C 1223.463 639.109, 1223.992 637.531, 1216.594 634.070 C 1194.022 623.509, 1161.284 614.014, 1131.399 609.360 C 1116.615 607.058, 1110.933 606.693, 1086 606.447 C 1063.410 606.225, 1054.597 606.532, 1043.500 607.931 M 542.633 618.515 C 541.466 621.555, 541.985 638.650, 543.509 647.391 C 544.339 652.150, 545.953 658.846, 547.096 662.272 C 550.420 672.232, 559.480 689.947, 564.857 697 C 570.304 704.143, 584.159 717.701, 591.084 722.665 C 608.752 735.328, 634.887 743.972, 655.559 743.991 C 662.867 743.998, 666.149 743.598, 667.559 742.532 C 669.474 741.083, 669.473 741.063, 667.500 741.017 C 664.060 740.937, 642.806 733.392, 632.646 728.644 C 608.110 717.179, 590.542 702.508, 570.205 676.500 C 566.619 671.914, 557.602 654.953, 553.193 644.500 C 550.437 637.966, 549.223 634.363, 545.949 623 C 544.379 617.553, 543.472 616.326, 542.633 618.515 M 1143.500 653.136 C 1124.552 653.888, 1113.746 655.165, 1097.500 658.571 C 1084.263 661.346, 1067.611 665.603, 1064.500 667.007 C 1063.400 667.504, 1060.250 668.562, 1057.500 669.359 C 1039.276 674.639, 1004.620 690.576, 973.500 707.985 C 963.570 713.540, 937.531 730.046, 910.173 748.127 C 901.125 754.107, 893.489 759, 893.205 759 C 892.921 759, 891.296 760.033, 889.594 761.297 C 878.648 769.421, 850.499 784.413, 838.500 788.510 C 826.592 792.576, 826.258 793.205, 836.383 792.496 C 860.179 790.830, 895.022 777.034, 947 748.696 C 967.948 737.276, 1003.873 719.109, 1023 710.265 C 1065.902 690.426, 1114.592 676.301, 1155.500 671.826 C 1180.763 669.062, 1241.310 670.573, 1260.051 674.435 C 1263.323 675.109, 1266 675.358, 1266 674.989 C 1266 674.382, 1261.714 672.639, 1246.500 667.058 C 1234.352 662.601, 1212.812 657.627, 1194.500 655.049 C 1178.070 652.736, 1165.463 652.263, 1143.500 653.136 M 641.388 835.926 C 636.342 838.095, 632.224 847.049, 633.397 853.302 C 635.814 866.188, 653.189 869.390, 658.990 858.019 C 662.473 851.192, 661.128 843.146, 655.662 838.106 C 652.814 835.481, 645.148 834.310, 641.388 835.926 M 888 840.793 C 882.615 843.732, 880 848.292, 880 854.744 C 880 863.699, 884.584 868.965, 893.088 869.782 C 901.726 870.612, 908 864.393, 908 855 C 908 843.444, 897.200 835.772, 888 840.793 M 1172 842.432 C 1169.182 843.955, 1157.193 846, 1151.077 846 C 1146.385 846, 1145.671 847.398, 1146.188 855.566 L 1146.500 860.500 1152.500 860.791 L 1158.500 861.082 1158.214 911.291 C 1158.035 942.725, 1157.542 962.480, 1156.896 964.120 C 1155.903 966.644, 1152.361 969, 1149.560 969 C 1148.820 969, 1147.941 969.712, 1147.607 970.582 C 1146.626 973.138, 1146.911 979.827, 1148.031 980.519 C 1148.598 980.869, 1159.510 981.209, 1172.281 981.274 L 1195.500 981.393 1195.500 974.446 L 1195.500 967.500 1191.500 967.331 C 1189.300 967.238, 1186.938 967.126, 1186.250 967.081 C 1185.264 967.017, 1185 953.690, 1185 904 L 1185 841 1179.750 841.040 C 1176.862 841.062, 1173.375 841.688, 1172 842.432 M 1127.115 870.657 C 1123.248 872.626, 1115.547 881.923, 1113.785 886.750 C 1112.416 890.499, 1112.195 890.554, 1107.218 888.365 C 1104.782 887.294, 1099.520 886.564, 1091.959 886.249 C 1080.697 885.780, 1080.229 885.847, 1072.620 889.014 C 1062.946 893.042, 1055.163 900.218, 1051.287 908.683 C 1045.685 920.920, 1048.670 936.282, 1058.241 944.474 C 1060.506 946.413, 1062.729 948, 1063.180 948 C 1065.546 948, 1063.440 950.800, 1059.503 952.889 C 1056.777 954.335, 1053.825 957.059, 1052.003 959.809 C 1049.501 963.586, 1049 965.346, 1049 970.355 C 1049 976.261, 1049.089 976.453, 1054 981.187 C 1056.750 983.838, 1059 986.188, 1059 986.409 C 1059 986.631, 1056.812 988.384, 1054.138 990.305 C 1047.492 995.080, 1044.620 1001.070, 1045.191 1008.965 C 1046.342 1024.873, 1062.375 1032.983, 1090.164 1031.713 C 1108.343 1030.882, 1121.589 1026.206, 1131.181 1017.234 C 1138.266 1010.606, 1139.417 1007.988, 1139.413 998.500 C 1139.409 989.496, 1137.335 984.142, 1132.162 979.790 C 1125.783 974.422, 1111.079 970.550, 1091 968.951 C 1075.299 967.701, 1072.446 967.151, 1070.499 964.999 C 1066.519 960.601, 1072.916 956.270, 1081.869 957.299 C 1084.416 957.592, 1090.298 957.405, 1094.940 956.884 C 1108.827 955.323, 1120.475 948.266, 1126.948 937.490 C 1130.039 932.343, 1130.440 930.828, 1130.822 922.843 C 1131.309 912.662, 1130.071 908.265, 1124.523 900.462 C 1121.191 895.775, 1121.147 895.583, 1122.589 892.083 C 1123.401 890.112, 1124.813 887.937, 1125.726 887.248 C 1127.122 886.196, 1127.844 886.435, 1130.259 888.748 C 1132.613 891.004, 1134.037 891.500, 1138.152 891.500 C 1142.414 891.500, 1143.538 891.076, 1145.587 888.694 C 1148.997 884.730, 1149.022 876.299, 1145.635 872.362 C 1143.595 869.991, 1142.390 869.565, 1136.885 869.273 C 1132.281 869.029, 1129.556 869.415, 1127.115 870.657 M 739.666 885.008 C 736.458 886.148, 732.037 888.214, 729.843 889.599 C 724.681 892.858, 722.638 892.438, 722 887.989 C 721.537 884.761, 721.210 884.476, 717.622 884.182 C 715.293 883.991, 711.856 884.676, 709.019 885.896 C 706.204 887.107, 700.902 888.170, 695.898 888.527 C 682.140 889.506, 682.859 889.067, 683.203 896.281 L 683.500 902.500 690 903 L 696.500 903.500 696.168 931 C 695.985 946.125, 695.611 959.625, 695.336 961 C 694.129 967.049, 692.863 968.834, 689.161 969.705 C 685.522 970.562, 685.498 970.602, 685.200 976.301 L 684.899 982.036 709.200 981.768 L 733.500 981.500 733.500 975.500 L 733.500 969.500 728 969 L 722.500 968.500 722.776 937.571 C 722.935 919.725, 723.458 906.153, 724.012 905.486 C 726.363 902.652, 734.100 899.722, 739.433 899.645 C 746.007 899.550, 749.504 901.669, 752.500 907.565 C 754.348 911.201, 754.500 913.478, 754.500 937.543 C 754.500 960.912, 754.316 963.868, 752.705 966.327 C 751.682 967.888, 749.632 969.324, 747.942 969.662 C 744.650 970.320, 743.647 972.571, 744.176 978.112 L 744.500 981.500 768.750 981.768 L 793 982.036 793 975.568 L 793 969.100 787.250 968.800 L 781.500 968.500 780.993 937.500 C 780.714 920.450, 780.635 905.976, 780.817 905.336 C 781.421 903.212, 792.226 899.497, 797.645 899.551 C 801.638 899.590, 803.578 900.203, 806.313 902.290 C 812.029 906.650, 812.500 909.374, 812.500 938.099 C 812.500 966.284, 812.076 968.635, 806.796 969.691 C 804.115 970.227, 804 970.493, 804 976.125 L 804 982 827.393 982 C 853.330 982, 852.015 982.366, 851.985 975.168 C 851.963 969.922, 851.121 969.158, 844.978 968.810 L 839.500 968.500 839.861 945.500 C 840.387 912.038, 838.445 899.786, 831.286 891.411 C 821.607 880.089, 798.343 880.412, 781.347 892.105 C 776.774 895.252, 774.836 895.129, 773.224 891.592 C 772.648 890.328, 770.041 888.042, 767.431 886.512 C 760.823 882.640, 748.251 881.959, 739.666 885.008 M 388 885.829 C 381.048 888.415, 377.573 890.583, 374.167 894.462 C 369.342 899.958, 367.876 903.601, 367.271 911.598 C 366.572 920.837, 368.522 926.490, 374.358 932.152 C 379.337 936.982, 384.493 939.704, 400.991 946.213 C 420.590 953.947, 424 956.404, 424 962.799 C 424 969.856, 416.981 973.657, 405.860 972.624 C 394.699 971.586, 384.579 965.771, 381.134 958.416 C 380.383 956.812, 379.434 954.825, 379.025 954 C 378.516 952.972, 376.742 952.500, 373.391 952.500 L 368.500 952.500 368.500 968 L 368.500 983.500 374.630 983.795 C 380.529 984.078, 380.786 983.989, 381.426 981.440 C 381.909 979.513, 382.556 978.946, 383.795 979.359 C 384.733 979.672, 388.875 981.120, 393 982.575 C 399.849 984.993, 401.499 985.185, 412 984.793 C 422.171 984.413, 424.174 984.030, 429.333 981.479 C 435.893 978.235, 441.139 973.318, 443.663 968.048 C 445.704 963.787, 446.024 952.323, 444.264 946.496 C 441.556 937.526, 428.279 928.488, 407.500 921.469 C 390.287 915.655, 388 913.924, 388 906.712 C 388 899.004, 392.070 896, 402.512 896 C 414.210 896, 423.654 902.290, 427.644 912.738 L 429.272 917 434.661 917 L 440.050 917 439.775 900.750 L 439.500 884.500 433.500 884.500 C 428.039 884.500, 427.471 884.702, 427.180 886.750 C 426.783 889.549, 426.689 889.546, 418.596 886.500 C 413.091 884.428, 410.290 884.013, 402.227 884.078 C 395.761 884.129, 390.991 884.716, 388 885.829 M 646.173 885.523 C 642.798 886.989, 635.219 888.405, 624.704 889.533 L 618.909 890.155 619.204 896.328 L 619.500 902.500 625.660 902.795 C 629.380 902.974, 631.959 903.568, 632.169 904.295 C 632.360 904.958, 632.288 918.571, 632.008 934.546 C 631.443 966.840, 631.179 968.123, 624.745 969.782 C 621.615 970.589, 621.489 970.820, 621.200 976.309 L 620.900 982 645.343 982 C 664.073 982, 669.899 981.706, 670.269 980.741 C 670.535 980.048, 670.528 977.144, 670.254 974.287 L 669.754 969.092 664.127 968.796 L 658.500 968.500 658.239 926.250 L 657.978 884 653.739 884.039 C 651.408 884.061, 648.003 884.729, 646.173 885.523 M 456.155 886.872 C 455.179 887.498, 454.961 889.216, 455.360 893.118 C 455.663 896.078, 455.930 898.584, 455.955 898.687 C 455.980 898.789, 457.448 899.014, 459.217 899.187 C 462.231 899.480, 462.585 899.940, 464.837 906.500 C 466.159 910.350, 469.709 920.475, 472.726 929 C 475.743 937.525, 481.083 952.781, 484.592 962.903 C 488.101 973.024, 491.197 981.530, 491.471 981.805 C 492.194 982.527, 505.087 982.711, 507.791 982.038 C 509.770 981.546, 510.966 978.815, 516.569 961.984 C 520.137 951.268, 524.186 938.225, 525.568 933 C 526.950 927.775, 528.318 922.712, 528.608 921.750 C 529.315 919.402, 532 919.510, 532 921.886 C 532 922.923, 532.672 925.060, 533.494 926.636 C 534.315 928.211, 534.990 930.216, 534.994 931.091 C 534.997 931.966, 538.374 942.991, 542.499 955.591 C 546.623 968.191, 549.998 979.074, 549.999 979.775 C 549.999 980.476, 551.109 981.471, 552.464 981.986 C 555.881 983.285, 569.766 983.011, 570.812 981.624 C 571.279 981.006, 573.502 975.100, 575.751 968.500 C 586.667 936.476, 594.327 915.030, 596.486 910.453 C 599.295 904.498, 603.248 900.249, 607.750 898.347 C 610.791 897.062, 611 896.656, 611 892.048 L 611 887.123 606.750 886.508 C 604.413 886.170, 596.425 886.030, 589 886.197 L 575.500 886.500 575.202 892.750 L 574.905 899 579.393 899 C 581.862 899, 584.160 899.450, 584.500 899.999 C 584.839 900.549, 582.901 907.862, 580.192 916.249 C 571.722 942.478, 570.182 947.515, 569.469 951.312 C 568.538 956.275, 566.341 956.001, 564.958 950.750 C 562.392 941.002, 558.805 928.235, 557.582 924.500 C 556.862 922.300, 555.246 916.900, 553.991 912.500 C 549.303 896.058, 546.871 888.550, 545.829 887.294 C 544.609 885.824, 529.379 885.473, 527.184 886.865 C 526.461 887.324, 524.536 892.154, 522.908 897.600 C 515.330 922.937, 510.678 939.101, 509.041 945.788 C 507.355 952.674, 506.441 954.871, 505.658 953.917 C 505.470 953.687, 503.602 946.975, 501.507 939 C 499.411 931.025, 496.891 921.575, 495.906 918 C 492.727 906.459, 493.619 899.856, 498.613 897.957 C 500.894 897.090, 501.079 896.564, 500.802 891.755 L 500.500 886.500 479 886.254 C 467.175 886.119, 456.895 886.397, 456.155 886.872 M 891.500 888.129 C 888.591 889.333, 882.572 890.541, 877.109 891.018 C 871.410 891.516, 867.410 892.336, 866.935 893.104 C 866.505 893.801, 866.242 896.875, 866.351 899.935 L 866.550 905.500 872.584 905.793 L 878.619 906.086 878.177 934.779 C 877.692 966.322, 877.505 967.297, 871.634 968.811 C 868.635 969.584, 868.487 969.864, 868.200 975.309 C 868.016 978.794, 868.307 981.012, 868.950 981.030 C 880.155 981.350, 915.263 980.955, 915.998 980.501 C 916.549 980.161, 917 977.257, 917 974.048 C 917 967.450, 916.516 967, 909.430 967 L 905.023 967 904.761 926.750 L 904.500 886.500 900.500 886.280 C 898.253 886.157, 894.308 886.967, 891.500 888.129 M 958.500 886.732 C 956.850 886.970, 953.004 888.002, 949.953 889.025 C 946.838 890.069, 941.011 890.974, 936.660 891.089 C 927.557 891.330, 926.729 892.135, 927.199 900.280 L 927.500 905.500 933.833 905.800 L 940.166 906.100 939.767 933.300 C 939.354 961.537, 938.736 966.001, 934.961 968.021 C 933.955 968.559, 932.245 969, 931.162 969 C 929.506 969, 929.138 969.811, 928.847 974.096 C 928.656 976.899, 928.791 979.662, 929.146 980.236 C 929.846 981.369, 975.179 981.625, 976.989 980.507 C 977.545 980.163, 978 977.257, 978 974.048 C 978 967.449, 977.517 967, 970.418 967 L 966 967 966 942.640 C 966 929.241, 966.288 916.177, 966.640 913.608 C 967.422 907.905, 970.379 905.444, 978.493 903.742 C 986.578 902.046, 991.605 903.954, 994.985 910 C 997.440 914.392, 997.507 915.052, 997.792 937.500 C 998.051 957.999, 997.888 960.881, 996.292 964 C 995.061 966.405, 993.405 967.853, 991 968.627 C 987.606 969.720, 987.491 969.924, 987.200 975.377 C 986.983 979.444, 987.260 981.025, 988.200 981.091 C 988.915 981.141, 999.625 981.142, 1012 981.092 C 1024.375 981.042, 1034.838 981.001, 1035.250 981.001 C 1035.662 981, 1036 978.084, 1036 974.519 C 1036 967.392, 1036.002 967.394, 1028.070 966.770 L 1024.641 966.500 1024.854 944 C 1025.089 919.194, 1023.798 907.494, 1019.989 899.909 C 1015.020 890.015, 1009.495 886.817, 996.297 886.198 C 986.445 885.735, 981.065 886.981, 972.227 891.773 C 967.532 894.319, 966 894.040, 966 890.641 C 966 888.211, 964.232 885.910, 962.550 886.150 C 961.972 886.232, 960.150 886.494, 958.500 886.732 M 1203.250 888.662 C 1202.435 888.991, 1202 891.364, 1202 895.476 C 1202 902.271, 1202.569 903, 1207.875 903 C 1210.369 903, 1210.684 903.461, 1211.789 908.730 C 1212.567 912.440, 1219.162 926.875, 1230.495 949.674 C 1240.123 969.041, 1248 985.927, 1248 987.198 C 1248 990.062, 1243.952 1001.354, 1240.233 1008.868 C 1236.963 1015.474, 1233.993 1016.512, 1232.951 1011.413 C 1232.088 1007.197, 1231.534 1006.480, 1227.766 1004.704 C 1223.667 1002.772, 1220.100 1003.436, 1215.942 1006.907 C 1213.139 1009.248, 1212.632 1010.393, 1212.224 1015.315 C 1211.824 1020.134, 1212.118 1021.554, 1214.126 1024.521 C 1220.254 1033.577, 1234.363 1034.517, 1243.735 1026.494 C 1251.820 1019.574, 1254.343 1014.085, 1270.030 969.288 C 1291.130 909.029, 1292.006 907.010, 1299.065 902.339 C 1303.051 899.701, 1303.087 899.620, 1302.795 894.087 L 1302.500 888.500 1286.500 888.500 L 1270.500 888.500 1270.198 894.909 C 1269.862 902.041, 1270.494 902.960, 1275.750 902.985 C 1279.480 903.002, 1279.572 903.222, 1277.397 906.905 C 1276.515 908.398, 1272.574 919.416, 1268.638 931.389 C 1264.702 943.362, 1261.036 953.102, 1260.491 953.033 C 1259.522 952.910, 1249.791 931.869, 1243.846 917.042 C 1240.108 907.721, 1240.493 904.087, 1245.530 901.115 C 1248.743 899.219, 1249 898.703, 1249 894.141 C 1249 890.571, 1248.564 889.047, 1247.418 888.607 C 1245.534 887.884, 1205.053 887.935, 1203.250 888.662 M 1086.500 898.814 C 1082.326 900.246, 1079.745 902.663, 1077.224 907.500 C 1075.021 911.727, 1074.636 913.707, 1074.731 920.311 C 1074.919 933.462, 1079.142 941.789, 1086.754 944.020 C 1092.664 945.753, 1097.769 943.491, 1101.500 937.485 C 1104.316 932.953, 1104.500 932.038, 1104.499 922.578 C 1104.499 913.510, 1104.222 911.976, 1101.741 907.268 C 1100.225 904.390, 1097.952 901.359, 1096.690 900.533 C 1093.873 898.687, 1089.179 897.895, 1086.500 898.814 M 1071.184 993.493 C 1066.294 999.710, 1067.625 1009.504, 1073.937 1013.744 C 1085.343 1021.406, 1105.942 1020.173, 1115.238 1011.271 C 1120.604 1006.132, 1119.662 998.945, 1113.184 995.595 C 1109.959 993.928, 1099.098 992.387, 1083.908 991.442 L 1073.316 990.783 1071.184 993.493 M 347 1050.586 C 340.973 1052.745, 335.898 1055.651, 334.267 1057.877 C 330.894 1062.480, 329.868 1066.826, 331.146 1071.092 C 333.546 1079.103, 340.287 1082.348, 357.998 1084.020 C 371.442 1085.289, 375.338 1086.961, 375.803 1091.659 C 376.550 1099.211, 366.858 1103.863, 352.825 1102.688 C 344.980 1102.031, 340.459 1099.962, 338.176 1095.984 C 336.330 1092.768, 334.094 1091.808, 331.642 1093.180 C 329.122 1094.591, 329.670 1097.254, 333.368 1101.575 C 338.300 1107.337, 344.932 1109.507, 357.500 1109.473 C 365.486 1109.451, 368.406 1109.026, 372 1107.362 C 378.150 1104.515, 381.620 1101.001, 383.073 1096.151 C 384.715 1090.669, 382.237 1083.691, 377.840 1081.417 C 374.310 1079.592, 363.485 1077.472, 352.897 1076.532 C 344.186 1075.759, 339.064 1073.285, 338.885 1069.765 C 338.424 1060.706, 343.591 1057.074, 357 1057.029 C 365.156 1057.002, 370.051 1058.678, 373.574 1062.703 C 378.928 1068.820, 383.724 1064.634, 378.985 1057.979 C 375.195 1052.656, 369.809 1050.645, 358.500 1050.328 C 353 1050.174, 347.825 1050.290, 347 1050.586 M 841.500 1051.328 C 835.548 1053.662, 832.157 1056.015, 828.095 1060.629 C 815.693 1074.719, 820.556 1098.291, 837.670 1107.033 C 844.734 1110.641, 856.443 1110.547, 863.500 1106.824 C 866.250 1105.373, 869.850 1102.765, 871.500 1101.027 C 874.428 1097.944, 874.497 1097.641, 874.367 1088.316 C 874.272 1081.442, 873.851 1078.520, 872.867 1077.897 C 872.115 1077.420, 866.920 1077.024, 861.321 1077.015 C 853.387 1077.003, 850.796 1077.346, 849.571 1078.571 C 848.707 1079.436, 848 1080.304, 848 1080.500 C 848 1080.696, 848.707 1081.564, 849.571 1082.429 C 850.751 1083.609, 853.242 1084, 859.571 1084 L 868 1084 868 1089.461 C 868 1095.669, 866.363 1097.911, 859.500 1101.098 C 850.799 1105.139, 840.001 1102.577, 834.046 1095.059 C 828.097 1087.547, 826.647 1080.085, 829.543 1071.879 C 834.838 1056.871, 855.351 1051.351, 866.053 1062.053 C 868.559 1064.559, 870.648 1064.526, 872.023 1061.958 C 872.949 1060.226, 872.605 1059.405, 869.755 1056.555 C 864.073 1050.873, 849.525 1048.182, 841.500 1051.328 M 944.748 1051.427 C 936.743 1054.284, 931 1060.895, 931 1067.256 C 931 1068.532, 932.013 1071.584, 933.250 1074.038 C 936.313 1080.112, 942.310 1082.464, 958.500 1083.943 C 972.530 1085.224, 975.320 1086.578, 975.810 1092.342 C 976.056 1095.231, 975.572 1096.492, 973.470 1098.440 C 969.954 1101.699, 961.387 1103.416, 952.681 1102.607 C 944.705 1101.866, 940.984 1100.206, 939.004 1096.508 C 937.108 1092.965, 934.313 1091.495, 932.436 1093.053 C 928.608 1096.230, 932.805 1103.078, 940.909 1106.878 C 945.907 1109.222, 947.668 1109.495, 957.500 1109.457 C 967.458 1109.418, 968.994 1109.158, 973.712 1106.709 C 976.750 1105.133, 979.984 1102.446, 981.462 1100.270 C 986.012 1093.576, 984.347 1084.397, 977.964 1080.981 C 975.459 1079.640, 962.378 1077.312, 952.722 1076.488 C 943.150 1075.671, 939 1072.929, 939 1067.420 C 939 1063.046, 943.534 1058.504, 948.764 1057.640 C 960.084 1055.768, 969.125 1057.520, 973.817 1062.493 C 977.689 1066.597, 980.355 1066.730, 980.807 1062.841 C 981.244 1059.072, 976.097 1053.562, 970.292 1051.584 C 964.572 1049.635, 950.020 1049.545, 944.748 1051.427 M 1019.500 1052.423 C 1012.044 1055.526, 1005.822 1062.009, 1003.451 1069.146 C 999.718 1080.387, 1003.727 1095.407, 1012.318 1102.364 C 1019.727 1108.365, 1022.720 1109.473, 1031.500 1109.467 C 1038.208 1109.462, 1040.308 1109.035, 1044.500 1106.824 C 1051.247 1103.265, 1055.397 1098.825, 1054.530 1096.094 C 1053.560 1093.038, 1051.587 1093.492, 1045.338 1098.210 C 1040.419 1101.924, 1039.015 1102.468, 1033.431 1102.824 C 1028.378 1103.145, 1026.179 1102.781, 1022.540 1101.019 C 1005.852 1092.941, 1004.272 1067.193, 1019.975 1059.250 C 1023.385 1057.525, 1026.137 1057, 1031.762 1057 C 1039.208 1057, 1042.431 1058.041, 1048.208 1062.312 C 1050.449 1063.969, 1051.182 1064.093, 1052.458 1063.035 C 1054.665 1061.203, 1054.379 1059.729, 1051.250 1056.801 C 1046.427 1052.288, 1042.021 1050.672, 1033.500 1050.288 C 1026.721 1049.982, 1024.584 1050.308, 1019.500 1052.423 M 1162.290 1052.976 C 1155.672 1056.322, 1152.209 1059.756, 1148.766 1066.384 C 1145.711 1072.266, 1145.772 1085.452, 1148.888 1092.500 C 1153.775 1103.554, 1162.808 1109.425, 1175 1109.471 C 1185.092 1109.510, 1190.452 1107.330, 1196.819 1100.598 C 1202.920 1094.147, 1204.496 1089.495, 1204.473 1078 C 1204.454 1068.399, 1202.694 1063.871, 1196.838 1058.358 C 1191.132 1052.986, 1185.403 1050.701, 1176.500 1050.245 C 1169.099 1049.866, 1168.035 1050.070, 1162.290 1052.976 M 1242.572 1051.958 C 1232.328 1056.082, 1225.968 1065.085, 1225.234 1076.500 C 1224.317 1090.752, 1229.922 1101.144, 1242 1107.585 C 1244.710 1109.030, 1247.531 1109.435, 1254.500 1109.379 C 1262.387 1109.316, 1264.080 1108.973, 1268.194 1106.600 C 1277.331 1101.329, 1282.733 1092.394, 1283.671 1081 C 1284.632 1069.333, 1279.396 1059.833, 1268.478 1053.434 C 1262.003 1049.640, 1250.026 1048.957, 1242.572 1051.958 M 401.028 1051.961 C 399.020 1053.231, 400.539 1058.721, 406.309 1071.045 C 408.744 1076.245, 413.528 1086.877, 416.940 1094.671 C 426.373 1116.215, 425.723 1116.524, 441.881 1082.822 C 445.224 1075.848, 448.404 1069.868, 448.947 1069.533 C 450.207 1068.754, 450.420 1069.131, 460.488 1089.927 C 465.128 1099.511, 469.564 1107.993, 470.346 1108.774 C 473.722 1112.151, 475.689 1108.654, 494.601 1065.656 C 499.703 1054.056, 499.756 1051.500, 494.896 1051.500 C 492.790 1051.500, 491.891 1052.966, 487.235 1064 C 478.933 1083.673, 473.474 1095.342, 472.404 1095.699 C 471.863 1095.879, 467.285 1087.534, 462.231 1077.153 C 457.177 1066.773, 452.320 1057.681, 451.437 1056.948 C 450.323 1056.023, 449.323 1055.914, 448.166 1056.591 C 447.250 1057.128, 442.225 1066.082, 437 1076.490 C 431.775 1086.897, 427.050 1095.534, 426.500 1095.681 C 425.950 1095.828, 421.701 1087.162, 417.058 1076.423 C 405.827 1050.447, 405.123 1049.372, 401.028 1051.961 M 522.068 1052.874 C 520.939 1054.983, 520.536 1101.669, 521.612 1105.681 C 522.271 1108.137, 524.259 1109.222, 526.515 1108.356 C 527.828 1107.852, 527.995 1104.017, 527.765 1079.637 C 527.501 1051.572, 527.494 1051.499, 525.318 1051.189 C 523.940 1050.993, 522.742 1051.614, 522.068 1052.874 M 553.344 1052.193 C 552.335 1053.755, 551.606 1097.691, 552.490 1103.700 C 552.944 1106.789, 553.668 1108.077, 555.228 1108.572 C 559.355 1109.882, 560 1107.074, 560 1087.809 C 560 1077.282, 560.387 1070, 560.946 1070 C 561.466 1070, 565.748 1075.850, 570.462 1083 C 579.367 1096.507, 581.280 1098.038, 584.514 1094.250 C 585.335 1093.287, 589.288 1087.378, 593.298 1081.118 C 597.308 1074.858, 601.019 1069.794, 601.544 1069.865 C 602.093 1069.939, 602.713 1077.943, 603 1088.640 C 603.428 1104.604, 603.740 1107.437, 605.166 1108.335 C 606.374 1109.095, 607.268 1109.022, 608.416 1108.070 C 609.789 1106.930, 610 1103.192, 610 1080 C 610 1056.808, 609.789 1053.070, 608.416 1051.930 C 605.518 1049.525, 604.128 1051.200, 588.048 1076.493 C 584.823 1081.565, 582.021 1084.953, 581.189 1084.784 C 580.415 1084.628, 574.972 1077.075, 569.092 1068 C 558.491 1051.637, 555.586 1048.722, 553.344 1052.193 M 637.488 1053.250 C 637.185 1054.487, 637.064 1067.151, 637.219 1081.392 C 637.471 1104.620, 637.677 1107.395, 639.222 1108.369 C 640.344 1109.076, 641.280 1109.114, 641.904 1108.478 C 642.432 1107.940, 643.007 1098.987, 643.182 1088.582 C 643.380 1076.788, 643.887 1069.536, 644.529 1069.323 C 645.095 1069.135, 646.445 1070.381, 647.529 1072.093 C 648.613 1073.804, 649.966 1075.946, 650.535 1076.852 C 659.084 1090.466, 663.241 1096, 664.917 1096 C 667.270 1096, 669.613 1093.133, 678.376 1079.528 C 682.158 1073.657, 685.635 1069.235, 686.103 1069.703 C 686.571 1070.171, 687.076 1078.818, 687.227 1088.919 C 687.463 1104.781, 687.727 1107.427, 689.166 1108.334 C 690.375 1109.096, 691.268 1109.023, 692.416 1108.070 C 693.789 1106.930, 694 1103.192, 694 1080 C 694 1056.808, 693.789 1053.070, 692.416 1051.930 C 691.289 1050.995, 690.352 1050.910, 689.166 1051.635 C 687.386 1052.723, 680.067 1063.292, 671.774 1076.750 C 668.978 1081.287, 666.140 1085, 665.466 1085 C 664.792 1085, 659.248 1077.350, 653.145 1068 C 644.882 1055.341, 641.537 1051, 640.043 1051 C 638.794 1051, 637.831 1051.848, 637.488 1053.250 M 720.713 1051.621 C 720.321 1052.013, 720 1064.578, 720 1079.544 C 720 1103.152, 720.210 1106.929, 721.584 1108.070 C 722.733 1109.023, 723.625 1109.096, 724.834 1108.333 C 726.324 1107.393, 726.500 1104.332, 726.500 1079.391 L 726.500 1051.500 723.963 1051.204 C 722.567 1051.041, 721.104 1051.229, 720.713 1051.621 M 751.597 1053.166 C 750.239 1055.103, 750 1059.141, 750 1080.112 C 750 1103.034, 750.137 1104.945, 751.937 1107.139 C 753.515 1109.062, 754.211 1109.294, 755.687 1108.392 C 757.328 1107.389, 757.526 1105.328, 757.770 1086.642 C 757.922 1075.073, 758.441 1066, 758.953 1066 C 759.776 1066, 766.375 1074.329, 784.972 1098.840 C 788.452 1103.426, 792.410 1107.685, 793.767 1108.304 C 795.895 1109.273, 796.494 1109.108, 798.117 1107.103 C 799.848 1104.966, 800 1102.769, 800 1079.823 C 800 1054.357, 799.553 1051, 796.165 1051 C 792.305 1051, 792 1052.701, 792 1074.200 C 792 1085.640, 791.632 1095, 791.182 1095 C 790.423 1095, 787.023 1090.650, 765.483 1062.119 C 756.908 1050.761, 754.409 1049.150, 751.597 1053.166 M 1077.452 1052.265 C 1077.185 1052.961, 1077.086 1065.624, 1077.233 1080.406 C 1077.473 1104.576, 1077.673 1107.393, 1079.222 1108.369 C 1082.531 1110.455, 1083.491 1107.694, 1083.627 1095.701 L 1083.754 1084.500 1100.127 1084.500 L 1116.500 1084.500 1116.825 1095.488 C 1117.191 1107.847, 1118.216 1110.417, 1121.857 1108.110 C 1122.949 1107.418, 1123.199 1101.914, 1123.135 1079.953 C 1123.092 1064.742, 1122.649 1052.249, 1122.135 1051.735 C 1121.627 1051.227, 1120.377 1050.972, 1119.356 1051.167 C 1117.699 1051.484, 1117.446 1052.861, 1117 1064.011 L 1116.500 1076.500 1100.250 1076.775 L 1084 1077.050 1083.920 1070.275 C 1083.805 1060.468, 1083.247 1053.209, 1082.518 1052.029 C 1081.622 1050.579, 1078.034 1050.747, 1077.452 1052.265 M 1307.713 1051.621 C 1307.321 1052.013, 1307 1064.850, 1307 1080.148 L 1307 1107.962 1309.250 1108.515 C 1310.487 1108.819, 1320.275 1108.940, 1331 1108.784 L 1350.500 1108.500 1350.804 1105.881 C 1351.218 1102.310, 1349.731 1102.030, 1330.267 1102.014 L 1314.034 1102 1313.767 1076.750 L 1313.500 1051.500 1310.963 1051.204 C 1309.567 1051.041, 1308.104 1051.229, 1307.713 1051.621 M 1169.500 1056.693 C 1164.705 1057.798, 1158.033 1063.495, 1156.001 1068.219 C 1152.885 1075.463, 1153.193 1085.495, 1156.744 1092.440 C 1162.516 1103.726, 1181.183 1106.605, 1190.869 1097.702 C 1198.074 1091.079, 1200.222 1076.853, 1195.364 1067.927 C 1190.486 1058.964, 1179.794 1054.320, 1169.500 1056.693 M 1248.358 1056.899 C 1237.099 1059.781, 1231.014 1069.811, 1232.558 1082.944 C 1233.391 1090.028, 1236.735 1095.852, 1242.105 1099.570 C 1245.935 1102.222, 1247.103 1102.499, 1254.418 1102.490 C 1261.689 1102.481, 1262.934 1102.187, 1266.826 1099.557 C 1269.587 1097.691, 1272.063 1094.836, 1273.670 1091.665 C 1275.900 1087.263, 1276.148 1085.704, 1275.844 1078.004 C 1275.514 1069.678, 1275.344 1069.123, 1271.793 1064.791 C 1269.754 1062.304, 1266.492 1059.512, 1264.543 1058.587 C 1260.309 1056.578, 1252.709 1055.786, 1248.358 1056.899" stroke="none" fill="#03042b" fill-rule="evenodd"/>
</svg>